<mxfile host="app.diagrams.net" modified="2023-06-20T17:56:44.963Z" agent="Mozilla/5.0 (X11; Linux x86_64; rv:108.0) Gecko/20100101 Firefox/108.0" version="21.5.0" etag="-Bg_-UX09kkbf3EmiXkf" type="github">
  <diagram name="Page-1" id="jrfXAR7NFiyqUkJSURD9">
    <mxGraphModel>
      <root>
        <mxCell id="0" />
        <mxCell id="1" parent="0" />
      </root>
    </mxGraphModel>
  </diagram>
</mxfile>
